<svg xmlns="http://www.w3.org/2000/svg" width="257" height="201" fill="none"><path fill="#e0e0e0" d="M54.28 70.985c-11.801-1.382-24.03-6.968-28.437-18.14-3.474-8.673-6.44-21.612-16.575-20.068-12.594 1.93-9.649 27.3-6.703 37.09 11.964 39.813 50.943 46.089 51.573 45.135s3.067-44.058.142-44.017"/><path fill="#ccc" d="M54.28 70.984a43.44 43.44 0 0 1-18.098-6.093 22.42 22.42 0 0 1-1.625 15.64c-4.49 10.156-16.9 15.6-16.9 15.6 15.803 16.514 36.034 19.582 36.562 18.891.813-1.097 2.986-44.078.061-44.038"/><path fill="#e0e0e0" d="M202.033 70.985c11.802-1.382 24.03-6.968 28.438-18.14 3.473-8.673 6.439-21.612 16.575-20.068 12.532 1.91 9.587 27.3 6.642 37.09-11.964 39.813-50.944 46.11-51.574 45.135s-3.006-44.058-.081-44.017"/><path fill="#ccc" d="M242.13 79.517c-7.678 8.47-25.268 16.555-41.397 17.733.061 5.931.508 11.862 1.3 17.753.65.955 39.61-5.322 51.574-45.134a68 68 0 0 0 2.376-22.79 58.4 58.4 0 0 1-13.853 32.438"/><path fill="#e0e0e0" d="M158.129 0c33.137 0 60 26.863 60 60v71.473l.002.126v62.354c0 5.389-5.834 8.756-10.5 6.062L172.964 180H98.129c-33.137 0-60-26.863-60-60V60c0-33.137 26.863-60 60-60z"/><path fill="#ccc" d="M218.054 56.98q.074 1.5.075 3.02v71.471l.002.126v62.354c0 5.389-5.834 8.756-10.5 6.062l-34.667-20.015H124.83c15.628-.043 46.194-15.536 64.753-40.667 17.147-23.21 25.216-53.367 28.465-82.436z"/><mask id="a" width="116" height="51" x="70" y="89" maskUnits="userSpaceOnUse" style="mask-type:luminance"><path fill="#fff" d="M128.035 94.242a288.7 288.7 0 0 1-51.573-4.347 5.275 5.275 0 0 0-6.094 6.094c4.916 24.05 28.58 43.793 57.728 43.793 31.87 0 53.341-20.312 57.789-43.875a5.254 5.254 0 0 0-6.094-6.093 289 289 0 0 1-51.756 4.428"/></mask><g mask="url(#a)"><path fill="url(#b)" d="M128.035 94.242a288.7 288.7 0 0 1-51.573-4.347 5.275 5.275 0 0 0-6.094 6.094c4.916 24.05 28.58 43.793 57.728 43.793 31.87 0 53.341-20.312 57.789-43.875a5.254 5.254 0 0 0-6.094-6.093 289 289 0 0 1-51.756 4.428"/></g><path fill="url(#c)" d="M132.118 101.108h-5.952c-8.632 0-17.103-.427-25.268-1.097v36.969c.02 14.239 11.537 25.776 25.776 25.797h4.916c14.259 0 25.797-11.538 25.817-25.797V99.828c-8.166.752-16.656 1.178-25.289 1.28"/><path fill="#2e051a" d="M129.112 133.079c1.645.021 2.986-1.32 3.006-2.965v-29.007h-5.952v28.946a2.99 2.99 0 0 0 2.946 3.026" opacity=".3"/><path fill="#422b0d" d="m116.446 61.038-.203-.325a13 13 0 0 0-.732-1.076 30 30 0 0 0-2.925-3.332 45 45 0 0 0-4.529-3.798c-.874-.63-1.788-1.3-2.743-1.91s-1.909-1.178-2.965-1.807c-1.056-.63-2.031-1.077-3.007-1.585-.974-.507-2.03-.934-3.046-1.38a43 43 0 0 0-5.688-2.032 29 29 0 0 0-4.347-.813h-1.767a3.35 3.35 0 0 0-3.453 3.21c-.061 1.483.894 2.823 2.316 3.29l.365.122 1.178.386c.772.264 1.89.67 3.27 1.26 1.382.589 2.966 1.32 4.672 2.153l2.62 1.36c.895.468 1.748.935 2.723 1.504l.548.325-1.828.183c-.71.121-1.036.162-1.706.304s-1.24.244-1.788.386c-1.137.285-2.234.65-3.331 1.056a25.8 25.8 0 0 0-5.566 2.885 22 22 0 0 0-2.03 1.604c-.509.447-.996.935-1.443 1.443-.386.426-.65.792-.853 1.036l-.285.386a3.315 3.315 0 0 0 .691 4.651 3.35 3.35 0 0 0 3.981 0l.366-.264.244-.183.67-.487a22 22 0 0 1 2.681-1.544 32 32 0 0 1 4.286-1.645c.813-.244 1.686-.447 2.58-.65.447-.122.873-.183 1.28-.264.406-.082 1.096-.163 1.442-.224a40 40 0 0 1 5.403-.365 29 29 0 0 1 4.57.426c.65.122 1.239.224 1.727.366.426.101.833.223 1.239.365l.406.102.427.183.345.162a3.385 3.385 0 0 0 3.941-.954c.467-.57.731-1.3.731-2.032.162-.853 0-1.747-.467-2.478m23.366 0 .203-.325a13 13 0 0 1 .731-1.076 30.4 30.4 0 0 1 2.925-3.332 45 45 0 0 1 4.53-3.798c.873-.63 1.787-1.3 2.742-1.91s1.91-1.178 2.966-1.807c1.056-.63 2.031-1.077 3.006-1.585.975-.507 2.031-.934 3.047-1.38a43 43 0 0 1 5.687-2.032 29 29 0 0 1 4.347-.813h1.767a3.35 3.35 0 0 1 3.454 3.21c.061 1.483-.894 2.823-2.316 3.29l-.366.122-1.178.386c-.772.264-1.889.67-3.27 1.26-1.381.589-2.966 1.32-4.672 2.153l-2.62 1.36c-.894.468-1.747.935-2.722 1.504l-.549.325 1.829.183c.71.121 1.035.162 1.706.304.67.142 1.239.244 1.787.386 1.138.285 2.235.65 3.332 1.056a25.8 25.8 0 0 1 5.565 2.885 22 22 0 0 1 2.031 1.604c.508.447.996.935 1.443 1.443.386.426.65.792.853 1.036l.284.386a3.315 3.315 0 0 1-.691 4.651 3.35 3.35 0 0 1-3.981 0l-.365-.264-.244-.183-.67-.487a22 22 0 0 0-2.682-1.544 32 32 0 0 0-4.286-1.645c-.812-.244-1.686-.447-2.579-.65-.447-.122-.874-.183-1.28-.264s-1.097-.163-1.442-.224a40 40 0 0 0-5.403-.365c-1.524.02-3.068.162-4.571.426-.65.122-1.239.224-1.726.366-.427.101-.833.223-1.239.365l-.407.102-.426.183-.345.162a3.385 3.385 0 0 1-3.941-.954 3.24 3.24 0 0 1-.731-2.032c-.163-.853 0-1.747.467-2.478"/><defs><linearGradient id="b" x1="128.129" x2="128.129" y1="139.884" y2="89.836" gradientUnits="userSpaceOnUse"><stop stop-color="#404040"/><stop offset=".12" stop-color="#3e3a35"/><stop offset=".44" stop-color="#392d1e"/><stop offset=".74" stop-color="#362510"/><stop offset="1" stop-color="#35220b"/></linearGradient><linearGradient id="c" x1="129.152" x2="129.152" y1="162.777" y2="99.828" gradientUnits="userSpaceOnUse"><stop stop-color="#ff4081"/><stop offset=".28" stop-color="#fb3d80"/><stop offset=".55" stop-color="#ef337d"/><stop offset=".82" stop-color="#db2378"/><stop offset="1" stop-color="#ca1573"/></linearGradient></defs></svg>